<svg width="22" height="22" viewBox="0 0 22 22" fill="none" xmlns="http://www.w3.org/2000/svg">
<path d="M6.41675 15.5833L6.41675 11.9167" stroke="#8E8E8E" stroke-width="1.5" stroke-linecap="round"/>
<path d="M11 15.5833L11 6.41666" stroke="#8E8E8E" stroke-width="1.5" stroke-linecap="round"/>
<path d="M15.5835 15.5833L15.5835 10.0833" stroke="#8E8E8E" stroke-width="1.5" stroke-linecap="round"/>
<path d="M2.29175 11C2.29175 6.89485 2.29175 4.84228 3.56705 3.56697C4.84236 2.29166 6.89493 2.29166 11.0001 2.29166C15.1052 2.29166 17.1578 2.29166 18.4331 3.56697C19.7084 4.84228 19.7084 6.89485 19.7084 11C19.7084 15.1051 19.7084 17.1577 18.4331 18.433C17.1578 19.7083 15.1052 19.7083 11.0001 19.7083C6.89493 19.7083 4.84236 19.7083 3.56705 18.433C2.29175 17.1577 2.29175 15.1051 2.29175 11Z" stroke="#8E8E8E" stroke-width="1.5" stroke-linejoin="round"/>
</svg>
