<svg width="22" height="22" viewBox="0 0 22 22" fill="none" xmlns="http://www.w3.org/2000/svg">
<path d="M1.83325 16.5C1.83325 15.0879 1.83325 14.3819 2.15109 13.8632C2.32893 13.573 2.57294 13.329 2.86316 13.1512C3.38182 12.8333 4.08785 12.8333 5.49992 12.8333C6.91199 12.8333 7.61802 12.8333 8.13668 13.1512C8.4269 13.329 8.6709 13.573 8.84875 13.8632C9.16659 14.3819 9.16659 15.0879 9.16659 16.5C9.16659 17.9121 9.16659 18.6181 8.84875 19.1368C8.6709 19.427 8.4269 19.671 8.13668 19.8488C7.61802 20.1667 6.91199 20.1667 5.49992 20.1667C4.08785 20.1667 3.38182 20.1667 2.86316 19.8488C2.57294 19.671 2.32893 19.427 2.15109 19.1368C1.83325 18.6181 1.83325 17.9121 1.83325 16.5Z" stroke="#8E8E8E" stroke-width="1.5"/>
<path d="M12.8333 16.5C12.8333 15.0879 12.8333 14.3819 13.1511 13.8632C13.3289 13.573 13.5729 13.329 13.8632 13.1512C14.3818 12.8333 15.0879 12.8333 16.4999 12.8333C17.912 12.8333 18.618 12.8333 19.1367 13.1512C19.4269 13.329 19.6709 13.573 19.8487 13.8632C20.1666 14.3819 20.1666 15.0879 20.1666 16.5C20.1666 17.9121 20.1666 18.6181 19.8487 19.1368C19.6709 19.427 19.4269 19.671 19.1367 19.8488C18.618 20.1667 17.912 20.1667 16.4999 20.1667C15.0879 20.1667 14.3818 20.1667 13.8632 19.8488C13.5729 19.671 13.3289 19.427 13.1511 19.1368C12.8333 18.6181 12.8333 17.9121 12.8333 16.5Z" stroke="#8E8E8E" stroke-width="1.5"/>
<path d="M1.83325 5.5C1.83325 4.08793 1.83325 3.3819 2.15109 2.86324C2.32893 2.57302 2.57294 2.32902 2.86316 2.15117C3.38182 1.83334 4.08785 1.83334 5.49992 1.83334C6.91199 1.83334 7.61802 1.83334 8.13668 2.15117C8.4269 2.32902 8.6709 2.57302 8.84875 2.86324C9.16659 3.3819 9.16659 4.08793 9.16659 5.5C9.16659 6.91207 9.16659 7.6181 8.84875 8.13676C8.6709 8.42698 8.4269 8.67099 8.13668 8.84883C7.61802 9.16667 6.91199 9.16667 5.49992 9.16667C4.08785 9.16667 3.38182 9.16667 2.86316 8.84883C2.57294 8.67099 2.32893 8.42698 2.15109 8.13676C1.83325 7.6181 1.83325 6.91207 1.83325 5.5Z" stroke="#8E8E8E" stroke-width="1.5"/>
<path d="M12.8333 5.5C12.8333 4.08793 12.8333 3.3819 13.1511 2.86324C13.3289 2.57302 13.5729 2.32902 13.8632 2.15117C14.3818 1.83334 15.0879 1.83334 16.4999 1.83334C17.912 1.83334 18.618 1.83334 19.1367 2.15117C19.4269 2.32902 19.6709 2.57302 19.8487 2.86324C20.1666 3.3819 20.1666 4.08793 20.1666 5.5C20.1666 6.91207 20.1666 7.6181 19.8487 8.13676C19.6709 8.42698 19.4269 8.67099 19.1367 8.84883C18.618 9.16667 17.912 9.16667 16.4999 9.16667C15.0879 9.16667 14.3818 9.16667 13.8632 8.84883C13.5729 8.67099 13.3289 8.42698 13.1511 8.13676C12.8333 7.6181 12.8333 6.91207 12.8333 5.5Z" stroke="#8E8E8E" stroke-width="1.5"/>
</svg>
