<svg width="22" height="22" viewBox="0 0 22 22" fill="none" xmlns="http://www.w3.org/2000/svg">
<path d="M13.75 16.1562C13.6825 17.8538 12.2678 19.2953 10.3727 19.2489C9.93176 19.2381 9.38678 19.0844 8.29686 18.777C5.67381 18.0371 3.39676 16.7936 2.85043 14.0081C2.75 13.496 2.75 12.9199 2.75 11.7675L2.75 10.2325C2.75 9.08014 2.75 8.50396 2.85043 7.99192C3.39676 5.20635 5.67381 3.9629 8.29686 3.22302C9.38679 2.91559 9.93176 2.76187 10.3727 2.75109C12.2678 2.70473 13.6825 4.14615 13.75 5.84376" stroke="#8E8E8E" stroke-width="1.5" stroke-linecap="round"/>
<path d="M19.2501 11H9.16675M19.2501 11C19.2501 10.3581 17.422 9.15888 16.9584 8.70831M19.2501 11C19.2501 11.6419 17.422 12.8411 16.9584 13.2916" stroke="#8E8E8E" stroke-width="1.5" stroke-linecap="round" stroke-linejoin="round"/>
</svg>
