<svg width="20" height="20" viewBox="0 0 20 20" fill="none" xmlns="http://www.w3.org/2000/svg">
<path d="M9.1665 18.3333L7.93448 16.3717C7.07634 15.0054 6.64727 14.3222 5.96694 14.1994C4.85943 13.9994 3.71478 14.7537 2.9165 15.4242" stroke="#0F121C" stroke-width="1.3"/>
<path d="M2.9165 7.5V13.3566C2.9165 14.3589 2.9165 14.8601 3.16542 15.2628C3.41433 15.6656 3.8626 15.8897 4.75913 16.338L8.04602 17.9814C8.74666 18.3317 8.75339 18.3333 9.53673 18.3333H12.0832C14.4402 18.3333 15.6187 18.3333 16.3509 17.6011C17.0832 16.8689 17.0832 15.6904 17.0832 13.3333V7.5C17.0832 5.14298 17.0832 3.96447 16.3509 3.23223C15.6187 2.5 14.4402 2.5 12.0832 2.5H7.9165C5.55948 2.5 4.38097 2.5 3.64874 3.23223C2.9165 3.96447 2.9165 5.14298 2.9165 7.5Z" stroke="#0F121C" stroke-width="1.3"/>
<path d="M9.99984 7.5H6.6665M13.3332 11.6667H6.6665" stroke="#0F121C" stroke-width="1.3" stroke-linecap="round" stroke-linejoin="round"/>
<path d="M14.1663 1.66666V3.33332M9.99967 1.66666V3.33332M5.83301 1.66666V3.33332" stroke="#0F121C" stroke-width="1.3" stroke-linecap="round" stroke-linejoin="round"/>
</svg>
