<svg width="22" height="22" viewBox="0 0 22 22" fill="none" xmlns="http://www.w3.org/2000/svg">
<path d="M14.2082 11C14.2082 12.7719 12.7718 14.2083 10.9998 14.2083C9.22792 14.2083 7.7915 12.7719 7.7915 11C7.7915 9.22809 9.22792 7.79167 10.9998 7.79167C12.7718 7.79167 14.2082 9.22809 14.2082 11Z" stroke="#8E8E8E" stroke-width="1.5"/>
<path d="M19.1797 12.9445C19.7051 12.7889 19.9679 12.711 20.0672 12.578C20.1666 12.4449 20.1666 12.2309 20.1666 11.803V10.1971C20.1666 9.76917 20.1666 9.55519 20.0672 9.42211C19.9678 9.28904 19.7051 9.21122 19.1797 9.05558C17.4661 8.54797 16.3941 6.7576 16.7943 5.03315C16.9207 4.48894 16.9838 4.21683 16.9171 4.06477C16.8505 3.9127 16.6632 3.80638 16.2887 3.59373L14.8526 2.77839C14.4846 2.56942 14.3006 2.46494 14.1366 2.48503C13.9726 2.50513 13.7771 2.691 13.3861 3.06274C12.063 4.32087 9.93829 4.32082 8.61515 3.06266C8.22421 2.69091 8.02873 2.50504 7.86474 2.48494C7.70074 2.46485 7.51671 2.56933 7.14865 2.77831L5.71263 3.59364C5.33811 3.80628 5.15085 3.91259 5.08418 4.06464C5.01751 4.21668 5.08064 4.48882 5.20688 5.03308C5.60689 6.75759 4.53404 8.54801 2.82012 9.0556C2.29472 9.2112 2.03201 9.289 1.93263 9.42208C1.83325 9.55516 1.83325 9.76915 1.83325 10.1971V11.803C1.83325 12.2309 1.83325 12.4449 1.93262 12.578C2.032 12.7111 2.2947 12.7889 2.82012 12.9445C4.53373 13.4521 5.60573 15.2425 5.20549 16.967C5.07918 17.5112 5.01603 17.7833 5.0827 17.9353C5.14937 18.0874 5.33664 18.1937 5.71118 18.4064L7.1472 19.2217C7.51528 19.4307 7.69933 19.5352 7.86334 19.5151C8.02736 19.495 8.22279 19.3091 8.61365 18.9373C9.93752 17.6781 12.0638 17.678 13.3876 18.9372C13.7785 19.309 13.9739 19.4949 14.138 19.515C14.302 19.5351 14.486 19.4306 14.8541 19.2216L16.2901 18.4063C16.6647 18.1936 16.852 18.0873 16.9186 17.9352C16.9853 17.7831 16.9221 17.511 16.7957 16.9669C16.3953 15.2425 17.4664 13.4522 19.1797 12.9445Z" stroke="#8E8E8E" stroke-width="1.5" stroke-linecap="round"/>
</svg>
