<svg width="32" height="32" viewBox="0 0 32 32" fill="none" xmlns="http://www.w3.org/2000/svg">
<g clip-path="url(#clip0_738_1714)">
<path d="M31.6606 29.6924C30.6188 28.0025 30.3936 25.9607 31.0415 24.0855C31.6811 22.5668 32.0033 20.9548 31.9993 19.2937C31.9864 13.9502 28.6667 9.34345 23.6884 7.68194C21.8647 3.16711 17.4035 0.10025 12.5404 0.00227152C5.70873 -0.130399 0.0164998 5.41356 2.49642e-05 12.2525C-0.0046482 14.1906 0.647773 15.7435 1.11453 17.5759C1.55278 19.2961 1.27073 21.1394 0.338631 22.6511C-0.0288853 23.1627 0.0666373 23.8363 0.629476 24.1541C2.80955 25.3783 5.59832 25.1722 7.56778 23.6262C7.80803 23.7262 8.05142 23.8184 8.29758 23.9028C9.15364 26.0499 10.5881 27.8965 12.4689 29.2643C15.8962 31.757 20.5185 32.3005 24.4315 30.6676C25.3165 31.3623 26.3634 31.8013 27.4941 31.9473C27.7665 31.9825 28.0385 32 28.3091 32C29.3783 32 30.4232 31.727 31.3697 31.1956C31.935 30.8763 32.0261 30.2001 31.6606 29.6924ZM6.7415 21.8278C5.58295 22.9478 3.89325 23.3206 2.39086 22.854C3.21033 21.1449 3.42957 19.1904 3.01358 17.342C2.61913 15.5893 1.89646 14.11 1.90097 12.257C1.91491 6.4704 6.72075 1.78797 12.5022 1.9029C18.1122 2.01577 22.6763 6.67206 22.6763 12.2826C22.6763 18.0183 18.1831 22.578 12.447 22.6633C10.8233 22.6894 9.26398 22.3478 7.81213 21.6536C7.63721 21.5699 7.4409 21.5418 7.24952 21.5729C7.05815 21.6041 6.88088 21.693 6.7415 21.8278Z" fill="white"/>
<path d="M12.2881 13.8331C13.1188 13.8331 13.7921 13.1601 13.7921 12.3299C13.7921 11.4997 13.1188 10.8267 12.2881 10.8267C11.4575 10.8267 10.7842 11.4997 10.7842 12.3299C10.7842 13.1601 11.4575 13.8331 12.2881 13.8331Z" fill="white"/>
<path d="M6.74811 13.8331C7.57872 13.8331 8.25207 13.1601 8.25207 12.3299C8.25207 11.4997 7.57872 10.8267 6.74811 10.8267C5.91749 10.8267 5.24414 11.4997 5.24414 12.3299C5.24414 13.1601 5.91749 13.8331 6.74811 13.8331Z" fill="white"/>
<path d="M17.8292 13.8331C18.6598 13.8331 19.3331 13.1601 19.3331 12.3299C19.3331 11.4997 18.6598 10.8267 17.8292 10.8267C16.9985 10.8267 16.3252 11.4997 16.3252 12.3299C16.3252 13.1601 16.9985 13.8331 17.8292 13.8331Z" fill="white"/>
</g>
<defs>
<clipPath id="clip0_738_1714">
<rect width="32" height="32" fill="white"/>
</clipPath>
</defs>
</svg>
