<svg width="22" height="22" viewBox="0 0 22 22" fill="none" xmlns="http://www.w3.org/2000/svg">
<path d="M16.9623 17.4167H17.3667C18.3153 17.4167 19.0698 16.9844 19.7473 16.3801C21.4684 14.8447 17.4227 13.2915 16.0415 13.2915" stroke="#8E8E8E" stroke-width="1.5" stroke-linecap="round" stroke-linejoin="round"/>
<path d="M13.75 4.64637C13.9581 4.60508 14.1743 4.58333 14.396 4.58333C16.0643 4.58333 17.4167 5.81455 17.4167 7.33333C17.4167 8.85212 16.0643 10.0833 14.396 10.0833C14.1743 10.0833 13.9581 10.0616 13.75 10.0203" stroke="#8E8E8E" stroke-width="1.5" stroke-linecap="round"/>
<path d="M4.38393 13.8519C3.37525 14.4311 0.730558 15.6137 2.34135 17.0935C3.12821 17.8163 4.00457 18.3333 5.10637 18.3333H11.3935C12.4953 18.3333 13.3716 17.8163 14.1585 17.0935C15.7693 15.6137 13.1246 14.4311 12.1159 13.8519C9.75057 12.4938 6.74926 12.4938 4.38393 13.8519Z" stroke="#8E8E8E" stroke-width="1.5" stroke-linecap="round" stroke-linejoin="round"/>
<path d="M11.9166 6.41667C11.9166 8.44171 10.275 10.0833 8.24992 10.0833C6.22487 10.0833 4.58325 8.44171 4.58325 6.41667C4.58325 4.39162 6.22487 2.75 8.24992 2.75C10.275 2.75 11.9166 4.39162 11.9166 6.41667Z" stroke="#8E8E8E" stroke-width="1.5"/>
</svg>
