<svg width="22" height="22" viewBox="0 0 22 22" fill="none" xmlns="http://www.w3.org/2000/svg">
<path d="M14.6665 12.8333C14.6665 13.5927 15.2821 14.2083 16.0415 14.2083C16.8009 14.2083 17.4165 13.5927 17.4165 12.8333C17.4165 12.0739 16.8009 11.4583 16.0415 11.4583C15.2821 11.4583 14.6665 12.0739 14.6665 12.8333Z" stroke="#8E8E8E" stroke-width="1.5"/>
<path d="M17.3248 7.33333C17.3849 7.03714 17.4165 6.73059 17.4165 6.41666C17.4165 3.88536 15.3645 1.83333 12.8332 1.83333C10.3019 1.83333 8.24984 3.88536 8.24984 6.41666C8.24984 6.73059 8.2814 7.03714 8.34152 7.33333" stroke="#8E8E8E" stroke-width="1.5"/>
<path d="M6.41659 7.32712H14.6666C17.2593 7.32712 18.5557 7.32712 19.3611 8.13297C20.1666 8.93882 20.1666 10.2358 20.1666 12.8298V14.664C20.1666 17.258 20.1666 18.555 19.3611 19.3608C18.5557 20.1667 17.2593 20.1667 14.6666 20.1667H9.16658C5.70962 20.1667 3.98114 20.1667 2.90719 19.0922C1.83325 18.0177 1.83325 16.2884 1.83325 12.8298V10.9956C1.83325 7.53693 1.83325 5.80761 2.90719 4.73315C3.77169 3.86823 5.06032 3.69955 7.33325 3.66666H9.16658" stroke="#8E8E8E" stroke-width="1.5" stroke-linecap="round"/>
</svg>
